<?xml version="1.0" encoding="UTF-8" ?>
<!DOCTYPE svg PUBLIC "-//W3C//DTD SVG 1.1//EN" "http://www.w3.org/Graphics/SVG/1.1/DTD/svg11.dtd">
<svg width="1024pt" height="414pt" viewBox="0 0 1024 414" version="1.1" xmlns="http://www.w3.org/2000/svg">
<g id="#e2e2e2e2">
<path fill="#e2e2e2" opacity="0.89" d=" M 0.00 0.00 L 190.41 0.00 L 190.47 1.01 C 127.22 1.29 63.97 1.08 0.73 1.12 C 0.40 59.74 0.70 118.38 0.58 177.00 C 0.61 255.73 0.58 334.46 0.61 413.19 L 0.00 412.28 L 0.00 0.00 Z" />
</g>
<g id="#ffffffff">
<path fill="#ffffff" opacity="1.00" d=" M 474.32 0.00 L 474.83 0.00 C 475.13 0.30 475.72 0.90 476.01 1.21 C 499.66 0.74 523.33 1.13 546.98 1.00 C 613.83 0.96 680.68 1.09 747.53 0.93 L 746.76 0.00 L 750.40 0.00 C 747.86 1.73 745.13 3.13 742.37 4.44 C 670.23 41.26 598.09 78.06 525.96 114.87 C 473.18 141.88 420.26 168.62 367.58 195.81 C 421.22 224.68 474.71 253.83 528.30 282.79 C 532.37 285.16 536.75 287.02 540.63 289.73 C 453.75 289.41 366.87 289.21 279.99 288.79 C 276.24 288.40 271.91 289.92 268.67 287.41 C 243.33 270.50 217.80 253.85 192.50 236.86 C 192.54 291.25 192.51 345.64 192.52 400.02 C 192.47 404.68 192.68 409.35 192.37 414.00 L 0.00 414.00 L 0.00 412.28 L 0.61 413.19 C 0.58 334.46 0.61 255.73 0.58 177.00 C 0.70 118.38 0.40 59.74 0.73 1.12 C 63.97 1.08 127.22 1.29 190.47 1.01 C 190.58 21.34 190.21 41.67 190.35 62.00 C 189.90 78.99 190.56 96.00 189.89 112.98 C 189.99 130.87 189.80 148.76 189.73 166.65 C 284.03 111.51 378.42 56.50 472.76 1.42 C 473.15 1.07 473.93 0.36 474.32 0.00 Z" />
<path fill="#ffffff" opacity="1.00" d=" M 842.70 1.01 C 902.96 1.08 963.21 1.03 1023.46 1.04 C 1023.60 38.80 1023.67 76.56 1023.42 114.32 C 962.32 114.28 901.21 114.30 840.11 114.31 C 840.88 76.54 841.90 38.78 842.70 1.01 Z" />
<path fill="#ffffff" opacity="1.00" d=" M 839.90 122.24 C 901.27 122.24 962.63 122.26 1024.00 122.23 L 1024.00 122.92 C 1023.90 161.03 1023.86 199.15 1022.68 237.25 C 1022.79 262.44 1016.91 287.78 1004.65 309.85 C 992.07 332.91 972.46 351.80 949.54 364.50 C 935.96 372.28 921.08 377.27 906.47 382.69 C 888.90 389.08 871.08 394.85 852.91 399.26 C 830.57 404.74 807.78 408.22 784.93 410.66 C 781.96 411.42 779.60 409.23 777.12 408.03 C 721.41 377.68 665.65 347.40 609.93 317.06 C 607.44 315.69 604.79 314.56 602.60 312.71 C 642.39 312.45 682.16 311.60 721.94 311.31 C 729.80 311.28 737.46 309.20 745.10 307.60 C 765.38 302.80 785.49 296.15 803.44 285.38 C 814.62 278.56 825.12 269.79 831.44 258.12 C 834.97 251.66 836.95 244.37 837.18 237.02 C 837.93 198.75 839.04 160.50 839.90 122.24 Z" />
<path fill="#ffffff" opacity="1.00" d=" M 445.99 314.78 C 491.96 314.38 537.94 313.40 583.91 313.18 C 595.94 319.27 607.65 326.04 619.55 332.38 C 659.07 353.88 698.59 375.37 738.10 396.87 C 747.47 402.12 757.12 406.89 766.31 412.44 C 758.77 412.95 751.24 413.48 743.72 414.00 L 498.29 414.00 C 494.55 413.53 490.57 414.28 487.01 413.05 C 458.81 397.24 430.66 381.34 402.47 365.51 C 373.58 349.12 344.45 333.12 315.69 316.51 C 359.12 315.91 402.56 315.44 445.99 314.78 Z" />
</g>
<g id="#bfbfbfbf">
<path fill="#bfbfbf" opacity="0.75" d=" M 474.83 0.00 L 746.76 0.00 L 747.53 0.93 C 680.68 1.09 613.83 0.96 546.98 1.00 C 523.33 1.13 499.66 0.74 476.01 1.21 C 475.72 0.90 475.13 0.30 474.83 0.00 Z" />
</g>
<g id="#d3d3d3d3">
<path fill="#d3d3d3" opacity="0.83" d=" M 842.73 0.00 L 1024.00 0.00 L 1024.00 114.32 L 1023.42 114.32 C 1023.67 76.56 1023.60 38.80 1023.46 1.04 C 963.21 1.03 902.96 1.08 842.70 1.01 L 842.73 0.00 Z" />
</g>
<g id="#1f1f1f1f">
<path fill="#1f1f1f" opacity="0.12" d=" M 1022.68 237.25 C 1023.86 199.15 1023.90 161.03 1024.00 122.92 L 1024.00 230.36 C 1023.38 232.62 1022.73 234.89 1022.68 237.25 Z" />
</g>
</svg>
