<?xml version="1.0" encoding="UTF-8" ?>
<!DOCTYPE svg PUBLIC "-//W3C//DTD SVG 1.1//EN" "http://www.w3.org/Graphics/SVG/1.1/DTD/svg11.dtd">
<svg width="800pt" height="800pt" viewBox="0 0 800 800" version="1.1" xmlns="http://www.w3.org/2000/svg">
<g id="#000000ff">
<path fill="#000000" opacity="1.00" d=" M 21.15 170.22 C 68.37 170.21 115.59 170.22 162.81 170.22 C 162.62 212.00 162.48 253.78 162.33 295.56 C 232.18 254.01 302.00 212.41 371.85 170.87 C 373.04 170.06 374.52 170.24 375.90 170.19 C 442.87 170.30 509.85 170.12 576.83 170.28 C 482.44 219.28 388.12 268.39 293.81 317.54 C 336.47 341.25 379.23 364.79 421.96 388.39 C 355.39 388.30 288.82 388.04 222.26 387.59 C 202.82 374.82 183.58 361.66 164.34 348.57 C 164.37 392.98 164.33 437.40 164.35 481.81 C 116.62 481.80 68.88 481.81 21.15 481.80 C 21.18 377.94 21.18 274.08 21.15 170.22 Z" />
<path fill="#000000" opacity="1.00" d=" M 644.94 170.27 C 689.89 170.16 734.83 170.24 779.77 170.23 C 779.44 198.89 779.69 227.55 779.39 256.20 C 733.96 256.20 688.53 256.20 643.10 256.20 C 643.54 227.55 644.46 198.92 644.94 170.27 Z" />
<path fill="#000000" opacity="1.00" d=" M 642.85 262.23 C 688.37 262.12 733.89 262.21 779.42 262.18 C 779.19 290.46 778.78 318.73 778.16 347.01 C 777.78 353.69 777.82 360.42 776.73 367.04 C 773.55 389.04 763.75 410.24 748.13 426.16 C 736.98 437.74 723.07 446.46 708.18 452.39 C 691.66 458.84 675.01 465.05 657.86 469.63 C 640.19 474.42 622.07 477.36 603.89 479.46 C 602.34 479.49 600.61 480.06 599.22 479.13 C 555.15 454.70 511.11 430.21 467.02 405.81 C 497.89 405.36 528.78 405.18 559.65 404.49 C 575.25 401.98 590.64 397.62 605.02 391.02 C 616.44 385.61 627.67 378.50 634.77 367.78 C 638.41 362.23 640.71 355.69 640.77 349.02 C 641.59 320.09 642.23 291.16 642.85 262.23 Z" />
<path fill="#000000" opacity="1.00" d=" M 255.23 408.66 C 320.16 407.76 385.09 406.83 450.03 406.11 C 452.01 406.06 454.13 405.95 455.84 407.16 C 500.06 431.85 544.51 456.16 588.64 481.01 C 534.18 485.03 479.54 484.15 424.99 483.11 C 410.80 482.34 396.53 482.80 382.38 481.54 C 339.93 457.38 297.62 432.94 255.23 408.66 Z" />
<path fill="#000000" opacity="1.00" d=" M 30.45 603.62 C 30.50 572.35 30.44 541.07 30.48 509.80 C 39.05 509.81 47.62 509.78 56.19 509.82 C 56.20 523.01 56.17 536.20 56.20 549.39 C 73.38 536.12 90.60 522.91 107.88 509.77 C 118.68 509.87 129.48 509.70 140.27 509.87 C 120.13 525.18 99.71 540.15 79.35 555.19 C 98.92 569.48 118.65 583.56 138.27 597.79 C 140.64 599.61 143.46 600.99 145.24 603.48 C 134.48 603.80 123.70 603.52 112.93 603.63 C 94.02 589.80 75.09 576.01 56.15 562.23 C 56.25 576.01 56.14 589.79 56.20 603.57 C 47.62 603.68 39.04 603.59 30.45 603.62 Z" />
<path fill="#000000" opacity="1.00" d=" M 456.83 509.81 C 479.05 509.78 501.27 509.81 523.50 509.80 C 523.53 526.51 523.49 543.23 523.52 559.94 C 523.61 564.62 523.59 569.38 522.13 573.88 C 519.12 584.58 510.66 593.01 500.86 597.84 C 486.14 605.18 469.16 606.36 452.99 605.07 C 439.29 603.72 425.01 599.93 414.75 590.26 C 407.72 583.73 403.92 574.18 404.03 564.63 C 412.47 564.56 420.91 564.61 429.35 564.60 C 429.50 569.95 430.74 575.55 434.45 579.60 C 439.83 585.68 448.21 587.74 455.98 588.53 C 466.09 589.32 476.87 588.99 485.95 583.94 C 492.78 580.20 497.63 572.85 497.72 564.98 C 497.91 552.09 497.72 539.19 497.82 526.29 C 484.15 526.26 470.49 526.31 456.82 526.27 C 456.82 520.78 456.81 515.29 456.83 509.81 Z" />
<path fill="#000000" opacity="1.00" d=" M 161.41 544.37 C 175.29 536.01 192.26 534.72 208.06 536.35 C 220.01 537.65 232.86 541.73 240.28 551.81 C 245.60 558.85 246.41 568.06 245.53 576.57 C 220.47 576.64 195.40 576.50 170.34 576.64 C 172.91 585.16 182.15 588.72 190.18 589.87 C 201.89 591.40 214.45 590.17 224.92 584.40 C 229.90 587.90 235.01 591.19 239.99 594.69 C 227.74 602.90 212.50 605.25 198.02 605.36 C 184.03 605.24 169.17 602.87 157.76 594.18 C 150.31 588.56 145.56 579.35 146.06 569.95 C 145.73 559.33 152.55 549.68 161.41 544.37 M 190.03 550.83 C 182.41 551.96 174.09 555.51 170.98 563.10 C 188.20 563.15 205.43 563.14 222.66 563.11 C 221.57 558.01 217.35 554.27 212.59 552.58 C 205.41 549.99 197.53 549.82 190.03 550.83 Z" />
<path fill="#000000" opacity="1.00" d=" M 544.77 549.74 C 554.75 539.88 569.35 536.63 582.96 536.24 C 594.95 535.81 608.22 537.88 617.10 546.65 C 617.25 543.71 617.47 540.78 617.72 537.85 C 625.31 537.83 632.91 537.87 640.50 537.83 C 640.62 559.76 640.49 581.69 640.57 603.63 C 633.09 603.62 625.61 603.62 618.14 603.62 C 617.66 600.52 617.34 597.38 617.11 594.26 C 610.03 602.09 599.05 604.58 588.95 605.50 C 574.11 606.07 557.85 603.77 546.31 593.63 C 533.80 582.84 532.89 561.33 544.77 549.74 M 579.47 551.77 C 573.49 553.01 567.43 555.63 563.60 560.57 C 558.80 566.57 559.10 575.98 564.28 581.67 C 568.95 587.02 576.08 589.44 582.95 590.33 C 591.35 591.21 600.38 590.38 607.66 585.77 C 612.96 582.44 616.89 576.46 616.56 570.05 C 616.25 563.22 611.37 557.37 605.40 554.47 C 597.42 550.56 588.09 550.08 579.47 551.77 Z" />
<path fill="#000000" opacity="1.00" d=" M 250.93 537.86 C 260.09 537.78 269.26 537.95 278.42 537.77 C 286.78 553.10 294.52 568.78 302.22 584.46 C 306.42 577.76 309.73 570.55 313.88 563.83 C 319.19 555.17 324.38 546.44 329.76 537.83 C 338.53 537.87 347.29 537.83 356.06 537.85 C 336.67 568.90 317.09 599.84 297.66 630.87 C 288.89 631.00 280.12 630.86 271.36 630.94 C 276.84 622.24 282.26 613.50 287.79 604.82 C 288.32 603.80 289.50 602.64 288.57 601.47 C 276.09 580.23 263.40 559.11 250.93 537.86 Z" />
<path fill="#000000" opacity="1.00" d=" M 647.87 537.86 C 657.05 537.81 666.25 537.90 675.44 537.80 C 683.68 553.24 691.57 568.86 699.21 584.61 C 707.73 568.63 717.14 553.17 726.72 537.83 C 735.48 537.87 744.25 537.83 753.01 537.85 C 733.61 568.88 714.02 599.80 694.63 630.84 C 685.86 631.03 677.07 630.85 668.30 630.94 C 674.19 621.38 680.37 611.99 686.11 602.33 C 673.28 580.89 660.55 559.38 647.87 537.86 Z" />
</g>
</svg>
